<svg xmlns="http://www.w3.org/2000/svg" xmlns:xlink="http://www.w3.org/1999/xlink" width="24" height="24" viewBox="0 0 24 24">
    <defs>
        <path id="a" d="M14.676 13.806l-3.913 7.826-1.035-.445 1.035-6.8v-.746a192.835 192.835 0 0 1-4.658-.29c-1.946-.155-2.07-1.035-2.07-1.035L3 8.176l1.522-.518 2.122 3.623a188.57 188.57 0 0 1 4.14-.249v-.786L9.728 3.435 10.763 3l3.913 7.825c1.035 0 2.07-.051 2.815-.051 3.106-.01 4.14.507 4.14 1.542 0 1.035-1.034 1.553-4.14 1.553-.776 0-1.749-.031-2.815-.063z"/>
    </defs>
    <use fill="#00A1DE" fill-rule="evenodd" xlink:href="#a"/>
</svg>
